{
	"asset":{
		"generator":"Khronos glTF Blender I/O v4.2.60",
		"version":"2.0"
	},
	"extensionsUsed":[
		"KHR_materials_unlit"
	],
	"scene":0,
	"scenes":[
		{
			"name":"Scene",
			"nodes":[
				5
			]
		}
	],
	"nodes":[
		{
			"mesh":0,
			"name":"Object_2",
			"rotation":[
				1,
				0,
				0,
				0
			]
		},
		{
			"mesh":1,
			"name":"Object_3",
			"rotation":[
				1,
				0,
				0,
				0
			]
		},
		{
			"mesh":2,
			"name":"Object_4",
			"rotation":[
				1,
				0,
				0,
				0
			]
		},
		{
			"mesh":3,
			"name":"Object_5",
			"rotation":[
				1,
				0,
				0,
				0
			]
		},
		{
			"children":[
				0,
				1,
				2,
				3
			],
			"name":"concrete-bin.obj.cleaner.materialmerger.gles"
		},
		{
			"children":[
				4
			],
			"name":"Sketchfab_model"
		}
	],
	"materials":[
		{
			"doubleSided":true,
			"extensions":{
				"KHR_materials_unlit":{}
			},
			"name":"concrete-bin_u1_v1",
			"pbrMetallicRoughness":{
				"baseColorTexture":{
					"index":0
				},
				"metallicFactor":0,
				"roughnessFactor":0.9
			}
		}
	],
	"meshes":[
		{
			"name":"Object_0",
			"primitives":[
				{
					"attributes":{
						"POSITION":0,
						"NORMAL":1,
						"TEXCOORD_0":2
					},
					"indices":3,
					"material":0
				}
			]
		},
		{
			"name":"Object_1",
			"primitives":[
				{
					"attributes":{
						"POSITION":4,
						"NORMAL":5,
						"TEXCOORD_0":6
					},
					"indices":7,
					"material":0
				}
			]
		},
		{
			"name":"Object_2",
			"primitives":[
				{
					"attributes":{
						"POSITION":8,
						"NORMAL":9,
						"TEXCOORD_0":10
					},
					"indices":11,
					"material":0
				}
			]
		},
		{
			"name":"Object_3",
			"primitives":[
				{
					"attributes":{
						"POSITION":12,
						"NORMAL":13,
						"TEXCOORD_0":14
					},
					"indices":15,
					"material":0
				}
			]
		}
	],
	"textures":[
		{
			"sampler":0,
			"source":0
		}
	],
	"images":[
		{
			"mimeType":"image/png",
			"name":"Image_0",
			"uri":"concrete_trash_bin.png"
		}
	],
	"accessors":[
		{
			"bufferView":0,
			"componentType":5126,
			"count":65566,
			"max":[
				2.638578414916992,
				0.005832672119140625,
				3.492926597595215
			],
			"min":[
				-2.5460665225982666,
				-10.294473648071289,
				-2.4360275268554688
			],
			"type":"VEC3"
		},
		{
			"bufferView":1,
			"componentType":5126,
			"count":65566,
			"type":"VEC3"
		},
		{
			"bufferView":2,
			"componentType":5126,
			"count":65566,
			"type":"VEC2"
		},
		{
			"bufferView":3,
			"componentType":5125,
			"count":309876,
			"type":"SCALAR"
		},
		{
			"bufferView":4,
			"componentType":5126,
			"count":65616,
			"max":[
				2.5128915309906006,
				-1.7276873588562012,
				3.4733123779296875
			],
			"min":[
				-2.457146406173706,
				-10.360857009887695,
				-2.4316606521606445
			],
			"type":"VEC3"
		},
		{
			"bufferView":5,
			"componentType":5126,
			"count":65616,
			"type":"VEC3"
		},
		{
			"bufferView":6,
			"componentType":5126,
			"count":65616,
			"type":"VEC2"
		},
		{
			"bufferView":7,
			"componentType":5125,
			"count":266952,
			"type":"SCALAR"
		},
		{
			"bufferView":8,
			"componentType":5126,
			"count":65581,
			"max":[
				2.64323353767395,
				0.0059299468994140625,
				3.5697007179260254
			],
			"min":[
				-2.5863585472106934,
				-10.371228218078613,
				-2.5203094482421875
			],
			"type":"VEC3"
		},
		{
			"bufferView":9,
			"componentType":5126,
			"count":65581,
			"type":"VEC3"
		},
		{
			"bufferView":10,
			"componentType":5126,
			"count":65581,
			"type":"VEC2"
		},
		{
			"bufferView":11,
			"componentType":5125,
			"count":283527,
			"type":"SCALAR"
		},
		{
			"bufferView":12,
			"componentType":5126,
			"count":52528,
			"max":[
				2.64323353767395,
				0.005831718444824219,
				3.255065441131592
			],
			"min":[
				-2.5666306018829346,
				-10.346771240234375,
				-2.467031478881836
			],
			"type":"VEC3"
		},
		{
			"bufferView":13,
			"componentType":5126,
			"count":52528,
			"type":"VEC3"
		},
		{
			"bufferView":14,
			"componentType":5126,
			"count":52528,
			"type":"VEC2"
		},
		{
			"bufferView":15,
			"componentType":5123,
			"count":193695,
			"type":"SCALAR"
		}
	],
	"bufferViews":[
		{
			"buffer":0,
			"byteLength":786792,
			"byteOffset":0,
			"target":34962
		},
		{
			"buffer":0,
			"byteLength":786792,
			"byteOffset":786792,
			"target":34962
		},
		{
			"buffer":0,
			"byteLength":524528,
			"byteOffset":1573584,
			"target":34962
		},
		{
			"buffer":0,
			"byteLength":1239504,
			"byteOffset":2098112,
			"target":34963
		},
		{
			"buffer":0,
			"byteLength":787392,
			"byteOffset":3337616,
			"target":34962
		},
		{
			"buffer":0,
			"byteLength":787392,
			"byteOffset":4125008,
			"target":34962
		},
		{
			"buffer":0,
			"byteLength":524928,
			"byteOffset":4912400,
			"target":34962
		},
		{
			"buffer":0,
			"byteLength":1067808,
			"byteOffset":5437328,
			"target":34963
		},
		{
			"buffer":0,
			"byteLength":786972,
			"byteOffset":6505136,
			"target":34962
		},
		{
			"buffer":0,
			"byteLength":786972,
			"byteOffset":7292108,
			"target":34962
		},
		{
			"buffer":0,
			"byteLength":524648,
			"byteOffset":8079080,
			"target":34962
		},
		{
			"buffer":0,
			"byteLength":1134108,
			"byteOffset":8603728,
			"target":34963
		},
		{
			"buffer":0,
			"byteLength":630336,
			"byteOffset":9737836,
			"target":34962
		},
		{
			"buffer":0,
			"byteLength":630336,
			"byteOffset":10368172,
			"target":34962
		},
		{
			"buffer":0,
			"byteLength":420224,
			"byteOffset":10998508,
			"target":34962
		},
		{
			"buffer":0,
			"byteLength":387390,
			"byteOffset":11418732,
			"target":34963
		}
	],
	"samplers":[
		{
			"magFilter":9729,
			"minFilter":9987
		}
	],
	"buffers":[
		{
			"byteLength":11806124,
			"uri":"concrete_trash_bin_fixed_transforms.bin"
		}
	]
}
