{
	"asset":{
		"generator":"Khronos glTF Blender I/O v4.2.60",
		"version":"2.0"
	},
	"extensionsUsed":[
		"KHR_lights_punctual"
	],
	"extensionsRequired":[
		"KHR_lights_punctual"
	],
	"extensions":{
		"KHR_lights_punctual":{
			"lights":[
				{
					"color":[
						1,
						0.8470588326454163,
						0.8470588326454163
					],
					"intensity":81527119.59882338,
					"type":"point",
					"name":"Light.001"
				}
			]
		}
	},
	"scene":0,
	"scenes":[
		{
			"name":"Scene",
			"nodes":[
				0,
				1
			]
		}
	],
	"nodes":[
		{
			"extensions":{
				"KHR_lights_punctual":{
					"light":0
				}
			},
			"name":"Light",
			"rotation":[
				-0.28416627645492554,
				0.7269423007965088,
				0.34203392267227173,
				0.5232754945755005
			],
			"translation":[
				-160.03477478027344,
				103.28193664550781,
				121.55252075195312
			]
		},
		{
			"mesh":0,
			"name":"spider",
			"rotation":[
				0.70710688829422,
				0,
				0,
				0.7071066498756409
			]
		}
	],
	"materials":[
		{
			"doubleSided":true,
			"name":"HLeibTex",
			"pbrMetallicRoughness":{
				"baseColorTexture":{
					"index":0
				},
				"metallicFactor":0
			}
		},
		{
			"doubleSided":true,
			"name":"Skin",
			"pbrMetallicRoughness":{
				"baseColorTexture":{
					"index":1
				},
				"metallicFactor":0
			}
		},
		{
			"doubleSided":true,
			"name":"BeinTex",
			"pbrMetallicRoughness":{
				"baseColorTexture":{
					"index":2
				},
				"metallicFactor":0
			}
		},
		{
			"doubleSided":true,
			"name":"Augentex",
			"pbrMetallicRoughness":{
				"baseColorTexture":{
					"index":3
				},
				"metallicFactor":0
			}
		}
	],
	"meshes":[
		{
			"name":"spider",
			"primitives":[
				{
					"attributes":{
						"POSITION":0,
						"NORMAL":1,
						"TEXCOORD_0":2
					},
					"indices":3,
					"material":0
				},
				{
					"attributes":{
						"POSITION":4,
						"NORMAL":5,
						"TEXCOORD_0":6
					},
					"indices":7,
					"material":1
				},
				{
					"attributes":{
						"POSITION":8,
						"NORMAL":9,
						"TEXCOORD_0":10
					},
					"indices":11,
					"material":2
				},
				{
					"attributes":{
						"POSITION":12,
						"NORMAL":13,
						"TEXCOORD_0":14
					},
					"indices":15,
					"material":3
				}
			]
		}
	],
	"textures":[
		{
			"sampler":0,
			"source":0
		},
		{
			"sampler":0,
			"source":1
		},
		{
			"sampler":0,
			"source":2
		},
		{
			"sampler":0,
			"source":3
		}
	],
	"images":[
		{
			"mimeType":"image/jpeg",
			"name":"SpiderTex",
			"uri":"SpiderTex.jpg"
		},
		{
			"mimeType":"image/jpeg",
			"name":"wal67ar_small",
			"uri":"wal67ar_small.jpg"
		},
		{
			"mimeType":"image/jpeg",
			"name":"drkwood2",
			"uri":"drkwood2.jpg"
		},
		{
			"mimeType":"image/jpeg",
			"name":"engineflare1",
			"uri":"engineflare1.jpg"
		}
	],
	"accessors":[
		{
			"bufferView":0,
			"componentType":5126,
			"count":54,
			"max":[
				83.7318115234375,
				30.00267791748047,
				-23.87859344482422
			],
			"min":[
				15.919126510620117,
				-26.73670196533203,
				-77.82679748535156
			],
			"type":"VEC3"
		},
		{
			"bufferView":1,
			"componentType":5126,
			"count":54,
			"type":"VEC3"
		},
		{
			"bufferView":2,
			"componentType":5126,
			"count":54,
			"type":"VEC2"
		},
		{
			"bufferView":3,
			"componentType":5123,
			"count":240,
			"type":"SCALAR"
		},
		{
			"bufferView":4,
			"componentType":5126,
			"count":248,
			"max":[
				25.37593650817871,
				22.563758850097656,
				-25.993528366088867
			],
			"min":[
				-40.60438537597656,
				-16.29778289794922,
				-66.65618896484375
			],
			"type":"VEC3"
		},
		{
			"bufferView":5,
			"componentType":5126,
			"count":248,
			"type":"VEC3"
		},
		{
			"bufferView":6,
			"componentType":5126,
			"count":248,
			"type":"VEC2"
		},
		{
			"bufferView":7,
			"componentType":5123,
			"count":780,
			"type":"SCALAR"
		},
		{
			"bufferView":8,
			"componentType":5126,
			"count":840,
			"max":[
				45.692718505859375,
				99.82418060302734,
				1.9109764099121094
			],
			"min":[
				-66.85963439941406,
				-93.55821990966797,
				-70.15030670166016
			],
			"type":"VEC3"
		},
		{
			"bufferView":9,
			"componentType":5126,
			"count":840,
			"type":"VEC3"
		},
		{
			"bufferView":10,
			"componentType":5126,
			"count":840,
			"type":"VEC2"
		},
		{
			"bufferView":11,
			"componentType":5123,
			"count":2856,
			"type":"SCALAR"
		},
		{
			"bufferView":12,
			"componentType":5126,
			"count":64,
			"max":[
				-32.94801330566406,
				11.279952049255371,
				-55.03611755371094
			],
			"min":[
				-36.81935119628906,
				-4.747310638427734,
				-59.01370620727539
			],
			"type":"VEC3"
		},
		{
			"bufferView":13,
			"componentType":5126,
			"count":64,
			"type":"VEC3"
		},
		{
			"bufferView":14,
			"componentType":5126,
			"count":64,
			"type":"VEC2"
		},
		{
			"bufferView":15,
			"componentType":5123,
			"count":228,
			"type":"SCALAR"
		}
	],
	"bufferViews":[
		{
			"buffer":0,
			"byteLength":648,
			"byteOffset":0,
			"target":34962
		},
		{
			"buffer":0,
			"byteLength":648,
			"byteOffset":648,
			"target":34962
		},
		{
			"buffer":0,
			"byteLength":432,
			"byteOffset":1296,
			"target":34962
		},
		{
			"buffer":0,
			"byteLength":480,
			"byteOffset":1728,
			"target":34963
		},
		{
			"buffer":0,
			"byteLength":2976,
			"byteOffset":2208,
			"target":34962
		},
		{
			"buffer":0,
			"byteLength":2976,
			"byteOffset":5184,
			"target":34962
		},
		{
			"buffer":0,
			"byteLength":1984,
			"byteOffset":8160,
			"target":34962
		},
		{
			"buffer":0,
			"byteLength":1560,
			"byteOffset":10144,
			"target":34963
		},
		{
			"buffer":0,
			"byteLength":10080,
			"byteOffset":11704,
			"target":34962
		},
		{
			"buffer":0,
			"byteLength":10080,
			"byteOffset":21784,
			"target":34962
		},
		{
			"buffer":0,
			"byteLength":6720,
			"byteOffset":31864,
			"target":34962
		},
		{
			"buffer":0,
			"byteLength":5712,
			"byteOffset":38584,
			"target":34963
		},
		{
			"buffer":0,
			"byteLength":768,
			"byteOffset":44296,
			"target":34962
		},
		{
			"buffer":0,
			"byteLength":768,
			"byteOffset":45064,
			"target":34962
		},
		{
			"buffer":0,
			"byteLength":512,
			"byteOffset":45832,
			"target":34962
		},
		{
			"buffer":0,
			"byteLength":456,
			"byteOffset":46344,
			"target":34963
		}
	],
	"samplers":[
		{
			"magFilter":9729,
			"minFilter":9987
		}
	],
	"buffers":[
		{
			"byteLength":46800,
			"uri":"spider_light.bin"
		}
	]
}
